<?xml version="1.0" encoding="UTF-8" standalone="no"?>
<svg width="443px" height="443px" viewBox="0 0 443 443" version="1.1" xmlns="http://www.w3.org/2000/svg" xmlns:xlink="http://www.w3.org/1999/xlink" xmlns:sketch="http://www.bohemiancoding.com/sketch/ns">
    <!-- Generator: Sketch 3.2.2 (9983) - http://www.bohemiancoding.com/sketch -->
    <title>Slice 1</title>
    <desc>Created with Sketch.</desc>
    <defs>
        <linearGradient x1="3.19554176%" y1="-22.3053047%" x2="100%" y2="108.544371%" id="linearGradient-1">
            <stop stop-color="#F1212D" offset="0%"></stop>
            <stop stop-color="#910910" offset="100%"></stop>
        </linearGradient>
        <rect id="path-2" x="0" y="0" width="443" height="443" rx="40"></rect>
    </defs>
    <g id="Page-1" stroke="none" stroke-width="1" fill="none" fill-rule="evenodd" sketch:type="MSPage">
        <g id="App-Icon" sketch:type="MSLayerGroup">
            <g id="Rectangle-2">
                <use fill="#D8D8D8" sketch:type="MSShapeGroup" xlink:href="#path-2"></use>
                <use fill="url(#linearGradient-1)" xlink:href="#path-2"></use>
            </g>
            <g id="Elefant-2-+-Oval-3-+-Oval-5" transform="translate(32.000000, 84.000000)" fill="#FFFFFF" sketch:type="MSShapeGroup">
                <g id="Elefant-2" transform="translate(0.551451, 0.634021)" stroke="#FFFFFF" stroke-width="3">
                    <path d="M0.748839461,22.7537334 C5.70023284,14.9964633 25.5793245,10.1606163 21.4537856,11.6038067 C32.784306,3.7434168 46.2362017,-0.145612551 59.9796446,3.33038314 C66.465932,6.78832005 82.6666414,0.168005436 83.7222992,6.18464448 C69.9041641,10.2206639 55.1546696,5.62451996 41.0261518,5.88051785 C32.5813117,6.20597903 31.7708468,6.58421385 29.0999942,8.86562554 C24.936311,11.3655148 21.7782908,11.8393772 27.8800693,9.27219164 C25.1952885,10.9064775 18.8769676,13.9792753 25.6513476,10.3518882 C14.8369155,16.3085217 9.83248671,16.5869545 0.748839461,22.7537334 L0.748839461,22.7537334 L0.748839461,22.7537334 Z" id="path2221"></path>
                    <path d="M66.5621459,20.9758676 C77.0194355,13.9997867 85.7772261,7.51604682 95.4081629,2.61163535 C109.022687,-2.00692665 124.484828,0.939652843 137.601221,6.19427023 C144.79844,2.46391454 159.278551,18.4684776 145.202604,13.8757271 C132.793925,7.98785131 118.671868,4.29024501 104.996808,3.81529914 C98.4968543,5.24689831 92.3519482,4.00891444 90.6702205,6.3823923 C87.3393685,8.37166335 81.6790115,11.4756482 88.4627924,7.53275329 C81.4022964,12.3535904 74.8307502,18.2529062 66.5621459,20.9758676 L66.5621459,20.9758676 Z" id="path2223"></path>
                    <path d="M145.497555,2.27836269 C160.523765,3.54888596 175.625097,4.27643635 190.622386,2.47734524 C203.860147,2.28377193 217.11785,8.59838922 226.084783,17.9580861 C232.468792,25.1199793 213.24959,29.6244602 219.089688,27.690911 C215.852466,29.973717 206.625786,34.4829268 211.377243,32.6312553 C203.548404,42.0251043 203.651595,59.5096052 189.176695,62.884707 C200.125334,56.7214138 179.28896,68.5115872 189.432176,62.7025317 C188.085985,64.3857694 177.509726,68.9220002 183.964145,65.2151797 C175.586252,77.292622 171.859961,93.3970879 159.270299,102.075322 C153.434906,106.330676 140.030496,101.528024 153.795587,99.8555791 C166.448446,102.694159 168.57124,78.9447231 177.342841,69.708229 C176.866029,65.8848832 191.300317,61.0360088 183.879571,64.8512575 C188.371966,61.3391191 191.225245,62.3005097 195.11658,57.3235607 C197.176659,48.0396183 208.905685,29.3719061 211.651128,31.0674826 C214.017426,29.6776286 218.563557,26.9125861 213.438251,29.9241436 C230.522901,24.2269181 213.048547,11.9664942 203.373773,10.0318447 C189.21908,1.26807903 172.145511,9.90329975 156.757987,6.62281764 C154.094854,5.96460456 135.327606,8.22429532 145.497555,2.27836269 L145.497555,2.27836269 Z" id="path2225"></path>
                    <path d="M5.79817821,26.0482845 C6.88889734,42.2277574 23.7705195,49.1981603 32.045881,61.2569139 C45.380396,69.2629415 62.7453426,75.0368538 68.0173306,91.2449435 C70.8755514,96.7935074 80.7896564,108.316957 68.5029355,103.739073 C61.5155353,92.4755527 56.781529,78.4177091 42.9172846,73.2314379 C26.9655606,67.2204013 17.2390349,53.3743242 5.44430453,41.9287628 C2.33181092,37.2449036 -3.86809025,27.4753144 5.79817821,26.0482845 L5.79817821,26.0482845 Z" id="path2227"></path>
                    <path d="M80.6647499,81.8118187 C86.2729415,86.7183889 78.2600796,104.619888 76.8613935,91.1910443 C75.079575,87.0055234 75.23684,82.5821054 80.6647499,81.8118187 L80.6647499,81.8118187 Z" id="path2229"></path>
                    <path d="M52.0130526,60.3867831 C59.0265355,67.4627585 73.0745837,69.628678 76.6753429,60.5091292 C78.8178851,54.6177509 93.2701058,46.0455007 83.6663835,56.6818945 C76.9260681,68.7545407 56.1525028,75.736854 47.6042018,63.0835803 C49.0291144,62.108927 50.6979696,61.5291898 52.0130526,60.3867831 L52.0130526,60.3867831 Z" id="path2231"></path>
                    <path d="M79.7340409,21.8917081 C66.9293819,29.4844081 78.528306,44.9728933 78.4003925,52.7915464 C70.0812107,55.4432891 69.822985,39.6184571 67.8198266,35.0201209 C69.5811201,29.2605549 73.4862228,23.3633221 79.7340409,21.8917081 L79.7340409,21.8917081 Z" id="path2233"></path>
                    <path d="M139.554039,19.5758335 C150.413457,27.3707583 148.312522,43.8646554 150.20917,55.0038056 C140.991384,61.4502352 145.073255,41.2382875 142.028663,35.7493764 C143.912531,28.6743753 130.121501,22.0626113 139.554039,19.5758335 L139.554039,19.5758335 Z" id="path2235"></path>
                    <path d="M81.6214319,35.6783844 C94.3619905,40.8344092 68.4516992,43.1692161 81.6214319,35.6783844 L81.6214319,35.6783844 L81.6214319,35.6783844 Z" id="path2237"></path>
                    <path d="M139.996102,33.5234429 C149.807641,38.9085455 132.087774,45.9149904 136.063717,35.8712857 L138.029905,34.6973727 L139.996102,33.5234429 L139.996102,33.5234429 Z" id="path2239"></path>
                    <path d="M50.4987425,66.2128894 C47.851084,80.0929254 74.2842714,72.177074 72.2430447,78.3521935 C63.6963148,81.8050068 45.2451848,79.7449201 46.02145,68.5517532 L48.0486218,67.4640604 L50.4987425,66.2128894 L50.4987425,66.2128894 Z" id="path2241"></path>
                    <path d="M80.1708843,69.7522756 C86.4832588,83.7172131 94.8691255,99.0200456 89.5797632,114.711831 C86.7271424,132.262309 82.5937314,149.60192 75.0345046,165.778705 C71.937789,175.026127 63.3626535,193.30245 54.7842746,190.749872 C57.4092206,187.705783 63.5372507,187.962167 56.8194452,190.337081 C67.4512476,180.310856 69.7488503,164.829922 76.2438967,152.218209 C80.6690576,137.30647 83.7669979,121.938047 85.9454884,106.585372 C86.0091748,94.3559755 79.6125214,83.5549948 74.9533424,72.6348851 C76.692523,71.6740069 78.4317121,70.7131454 80.1708843,69.7522756 L80.1708843,69.7522756 Z" id="path2243"></path>
                    <path d="M56.691574,191.42994 C60.7196659,201.352752 76.6799715,202.076648 80.9900829,191.651357 C90.7043781,181.565471 95.1694232,168.045233 102.260445,156.220832 C110.25431,133.906246 116.701482,110.945962 121.612628,87.7470085 C120.373927,80.5676445 140.461503,68.750719 129.15481,80.6471283 C123.154279,93.29018 123.29303,108.660384 117.668368,121.879461 C113.181336,138.292337 108.617586,154.874638 99.387375,169.413618 C91.7995062,182.403138 83.7731723,200.075895 67.1578422,202.422587 C61.3543427,204.568029 45.4067997,195.947549 56.691574,191.42994 L56.691574,191.42994 Z" id="path2245"></path>
                    <path d="M136.979518,47.922463 C143.018598,50.1527473 148.639924,69.274222 138.719104,59.7922377 C135.632955,56.5060272 128.263107,49.734296 136.979518,47.922463 L136.979518,47.922463 Z" id="path2247"></path>
                    <path d="M135.072413,73.7603081 C136.221801,63.9778174 146.950189,69.9061868 135.072413,73.7603081 L135.072413,73.7603081 Z" id="path2249"></path>
                    <path d="M145.635199,65.0670389 C150.564378,67.6919202 167.122002,65.8673536 153.384032,70.2846484 C149.804702,70.7856577 134.37198,69.945681 145.635199,65.0670389 L145.635199,65.0670389 Z" id="path2251"></path>
                    <path d="M140.127385,73.3773192 C147.632859,74.1362835 151.043716,77.1365942 153.721207,71.8475559 C164.733473,66.7677307 146.953821,82.3296269 141.52945,78.2799248 C136.647555,78.3262141 134.376803,75.6496595 140.127385,73.3773192 L140.127385,73.3773192 Z" id="path2253"></path>
                    <path d="M115.956325,139.171035 C120.523075,140.685469 144.051907,138.715425 129.718672,143.821473 C126.263614,144.088272 104.172795,143.889189 115.956325,139.171035 L115.956325,139.171035 Z" id="path2255"></path>
                    <path d="M126.571674,142.376443 C128.148868,158.905861 129.481562,175.910436 126.373199,192.322699 C123.60734,206.874378 118.049304,220.5112 113.47807,234.529709 C107.602978,241.258217 116.763158,257.569956 106.596445,258.394604 C102.592273,239.304954 115.3535,222.662639 118.704489,204.54357 C124.69697,185.390362 122.711481,164.907222 121.664735,145.40569 C122.750588,143.732876 125.062339,143.534263 126.571674,142.376443 L126.571674,142.376443 Z" id="path2257"></path>
                    <path d="M169.845468,94.4767677 C169.74411,117.420849 169.024529,141.034449 159.486816,162.355651 C156.193103,177.657551 148.808186,191.508466 143.528385,206.175789 C140.872112,221.154345 134.068828,238.721488 144.1279,252.382946 C146.371698,264.585371 131.166508,249.41525 133.687925,242.722835 C132.996395,230.375863 135.831245,218.026556 138.963545,206.139428 C141.80467,195.912733 148.356992,186.900529 150.848476,176.731967 C153.298064,161.671811 162.571402,148.336646 162.401003,132.706362 C167.389054,120.78152 159.358734,104.86925 167.666209,95.2344469 L169.845468,94.4767677 L169.845468,94.4767677 Z" id="path2259"></path>
                    <path d="M111.168034,255.76501 C118.158221,262.108547 135.272274,258.391068 138.386347,259.985977 C128.882411,266.261428 116.306576,263.709462 106.956341,258.975349 C107.634627,257.266694 109.791891,256.745577 111.168034,255.76501 L111.168034,255.76501 Z" id="path2261"></path>
                    <path d="M97.6671652,180.744762 C103.683448,193.408073 105.953211,207.702739 107.796174,221.407285 C109.42517,226.459099 106.674879,246.887928 101.532071,235.724999 C104.90372,222.608278 100.90579,210.415537 97.3518328,197.834952 C97.2763297,192.534566 89.4798751,182.568262 97.6671652,180.744762 L97.6671652,180.744762 Z" id="path2263"></path>
                    <path d="M123.993167,160.472313 C118.201864,169.328666 127.143619,186.516575 117.813579,190.70286 C115.758306,181.914551 113.337748,164.945918 123.993167,160.472313 L123.993167,160.472313 L123.993167,160.472313 Z" id="path2265"></path>
                    <path d="M194.313396,122.062904 C183.531145,131.837987 180.848408,146.962692 175.051201,159.696811 C167.969876,173.235662 168.994755,188.154901 170.300108,202.714619 C169.062648,211.969953 165.153322,228.78013 155.803248,229.746359 C163.784325,218.124275 167.343562,203.479672 163.816726,189.47231 C163.259731,171.085894 173.330687,154.679217 179.388679,137.859758 C182.309835,131.157549 186.607116,123.856116 194.313396,122.062904 L194.313396,122.062904 Z" id="path2267"></path>
                    <path d="M190.025279,66.6383963 C202.457195,77.3424055 203.438,93.9257314 209.25748,107.28622 C213.602231,122.334122 203.919019,136.740811 200.733345,151.125526 C193.536962,170.310341 185.24763,189.47231 184.031802,210.210137 C184.878781,220.682415 187.69085,238.028182 170.50192,233.739214 C165.37587,235.241519 154.734261,232.684816 165.445359,230.04259 C170.541711,229.746401 187.719357,233.595575 178.517315,224.007918 C177.511179,208.776287 181.469849,193.575004 185.564424,179.029523 C192.17022,164.759215 196.160143,149.65555 201.141014,134.839179 C210.499755,120.12366 199.66114,106.510835 198.26177,91.4832354 C200.74816,82.1875841 176.81584,71.423393 190.025279,66.6383963 L190.025279,66.6383963 Z" id="path2269"></path>
                    <path d="M161.183882,170.267 C166.766388,170.305848 177.899194,166.408906 167.097904,172.07995 C163.452522,173.983774 151.446131,175.104695 161.183882,170.267 L161.183882,170.267 Z" id="path2271"></path>
                </g>
                <g id="Oval-3-+-Oval-5" transform="translate(211.128549, 120.986301)">
                    <path d="M98.0347035,48.3911789 C109.375233,46.4092492 117.993057,36.551749 117.993057,24.6896818 C117.993057,24.5860225 117.992399,24.4825163 117.991086,24.3791671 L117.991086,24.3791671 C117.992417,24.3791502 117.993747,24.3791333 117.995078,24.3791165 C117.993732,24.2744463 117.993057,24.169615 117.993057,24.0646266 C117.993057,10.7741003 128.811411,0 142.156528,0 C155.501645,0 166.32,10.7741003 166.32,24.0646266 C166.32,37.2514936 155.669742,47.9610352 142.468318,48.1272909 L142.468318,48.1272909 C142.468335,48.1285993 142.468352,48.1299077 142.468369,48.1312161 L142.468369,48.1312161 C142.364578,48.1299088 142.26063,48.1292532 142.156528,48.1292532 C130.14068,48.1292532 120.173297,56.8638951 118.306868,68.3054475 C118.513344,69.5711842 118.620679,70.8700485 118.620679,72.1938798 C118.620679,85.4844061 107.802324,96.2585064 94.4572075,96.2585064 C81.1120906,96.2585064 70.2937358,85.4844061 70.2937358,72.1938798 C70.2937358,58.9033535 81.1120906,48.1292532 94.4572075,48.1292532 C95.6727585,48.1292532 96.8673458,48.2186419 98.0347035,48.3911789 Z" id="Oval-3"></path>
                    <path d="M54.7245254,79.3639774 C53.5368511,91.2163658 62.1320756,102.466057 75.6223815,105.651797 C75.7402695,105.679636 75.8581831,105.706778 75.9761167,105.733224 L75.9761167,105.733224 C75.9757323,105.734556 75.9753477,105.735889 75.9749629,105.737222 C76.0944092,105.763989 76.213835,105.791469 76.3332345,105.819665 C91.4480759,109.38904 100.417894,123.081467 96.3678849,136.402556 C92.3178753,149.723645 76.7816939,157.628972 61.6668525,154.059597 C46.669899,150.518061 37.7224863,137.010767 41.5398109,123.788461 L41.5398109,123.788461 C41.5383178,123.788127 41.5368247,123.787792 41.5353316,123.787457 L41.5353316,123.787457 C41.5683169,123.684205 41.600609,123.58062 41.6322021,123.476706 C45.2788018,111.482492 38.3701317,99.1872323 25.9244907,94.2513591 C24.4223517,94.1175305 22.9126252,93.8758424 21.4070791,93.5203072 C6.29223769,89.9509321 -2.67758083,76.2585054 1.37242873,62.9374162 C5.42243829,49.616327 20.9586197,41.7110008 36.0734612,45.2803759 C51.1883026,48.8497509 60.1581211,62.5421776 56.1081116,75.8632668 C55.7392131,77.0766292 55.2750182,78.2450589 54.7245254,79.3639774 L54.7245254,79.3639774 Z" id="Oval-4"></path>
                </g>
            </g>
        </g>
    </g>
</svg>